<svg width="248" height="121" viewBox="0 0 248 121" fill="none" xmlns="http://www.w3.org/2000/svg">
<circle cx="121.8" cy="60.8893" r="46.447" transform="rotate(-9.3799 121.8 60.8893)" fill="#C03C29"/>
<circle cx="46.447" cy="46.447" r="46.447" transform="matrix(-0.986629 -0.16298 -0.16298 0.986629 174.516 22.6333)" fill="#BC1A1A"/>
<path d="M106.345 104.984C89.8218 109.927 75.7672 108.609 69.6285 100.092C59.559 86.1205 74.6021 58.0691 103.228 37.4371C131.854 16.8051 163.223 11.4054 173.293 25.3765C179.008 33.3054 176.634 45.7693 168.28 58.8382" stroke="black" stroke-width="0.741407"/>
<path d="M74.7272 58.956C66.4247 45.9236 63.9271 33.2852 69.6272 25.3765C79.6967 11.4054 111.066 16.8051 139.692 37.4371C168.318 58.0691 183.361 86.1205 173.292 100.092C167.19 108.557 153.268 109.911 136.875 105.073" stroke="black" stroke-width="0.741407"/>
<path d="M17.2408 67.2692V48.1775H23.5209V69.0276C23.5209 71.7072 22.8371 73.8703 21.4694 75.5171C19.5993 77.778 16.5709 78.9084 12.3841 78.9084C7.38792 78.9084 4.0385 77.5268 2.33588 74.7635C1.33106 73.1725 0.828646 70.6884 0.828646 67.311H7.1088C7.1088 69.4882 7.33209 71.0233 7.77868 71.9165C8.5323 73.4516 10.0395 74.2192 12.3004 74.2192C14.4496 74.2192 15.8871 73.4377 16.6128 71.8746C17.0314 70.9535 17.2408 69.4184 17.2408 67.2692ZM43.0264 78.9084C37.0812 78.9084 32.5734 77.3314 29.5031 74.1773C26.7957 71.3862 25.4419 67.7018 25.4419 63.1243C25.4419 58.5467 26.7957 54.8624 29.5031 52.0712C32.5734 48.9172 37.0812 47.3402 43.0264 47.3402C48.9716 47.3402 53.4793 48.9172 56.5496 52.0712C59.2571 54.8624 60.6108 58.5467 60.6108 63.1243C60.6108 67.7018 59.2571 71.3862 56.5496 74.1773C53.4793 77.3314 48.9716 78.9084 43.0264 78.9084ZM43.0264 74.2192C46.4874 74.2192 49.2088 73.1865 51.1906 71.121C53.1165 69.1393 54.0794 66.4737 54.0794 63.1243C54.0794 59.7749 53.1025 57.0953 51.1487 55.0857C49.1949 53.0481 46.4874 52.0293 43.0264 52.0293C39.5653 52.0293 36.8579 53.0481 34.904 55.0857C32.9502 57.0953 31.9733 59.7749 31.9733 63.1243C31.9733 66.4737 32.9363 69.1393 34.8622 71.121C36.8439 73.1865 39.5653 74.2192 43.0264 74.2192ZM62.5472 78.071V48.1775H82.3087C88.0307 48.1775 90.8916 50.6617 90.8916 55.63C90.8916 57.5001 90.4171 58.9794 89.4681 60.0679C88.9099 60.7099 88.0307 61.31 86.8304 61.8682C90.459 62.9847 92.2732 65.4549 92.2732 69.2788C92.2732 71.4559 91.5894 73.34 90.2217 74.931C88.4075 77.0244 85.7 78.071 82.0994 78.071H62.5472ZM68.8273 52.8667V60.3191H80.5503C83.2577 60.3191 84.6115 59.0492 84.6115 56.5092C84.6115 54.0809 82.8949 52.8667 79.4617 52.8667H68.8273ZM68.8273 64.7571V73.3819H80.0897C81.8203 73.3819 83.1182 73.1307 83.9834 72.6282C85.1557 71.9305 85.7419 70.7163 85.7419 68.9858C85.7419 67.646 85.3093 66.6133 84.444 65.8875C83.6066 65.1339 82.4622 64.7571 81.0108 64.7571H68.8273Z" fill="#BC1A1A"/>
<path d="M138.477 59.2306H131.695C131.388 56.9976 130.369 55.2392 128.638 53.9553C126.908 52.6713 124.717 52.0293 122.065 52.0293C119.051 52.0293 116.65 52.9923 114.864 54.9182C112.938 56.9837 111.975 59.9005 111.975 63.6686C111.975 66.7947 112.952 69.3347 114.906 71.2885C116.86 73.2423 119.386 74.2192 122.484 74.2192C125.414 74.2192 127.703 73.354 129.35 71.6234C130.606 70.3116 131.388 68.6508 131.695 66.6412H138.477C137.277 74.8193 131.583 78.9084 121.395 78.9084C116.259 78.9084 112.254 77.3314 109.379 74.1773C106.755 71.3024 105.444 67.6181 105.444 63.1243C105.444 58.5747 106.755 54.8903 109.379 52.0712C112.338 48.9172 116.594 47.3402 122.149 47.3402C127.061 47.3402 130.983 48.5125 133.914 50.857C136.593 53.0063 138.114 55.7974 138.477 59.2306ZM156.946 78.9084C151.001 78.9084 146.493 77.3314 143.422 74.1773C140.715 71.3862 139.361 67.7018 139.361 63.1243C139.361 58.5467 140.715 54.8624 143.422 52.0712C146.493 48.9172 151.001 47.3402 156.946 47.3402C162.891 47.3402 167.399 48.9172 170.469 52.0712C173.176 54.8624 174.53 58.5467 174.53 63.1243C174.53 67.7018 173.176 71.3862 170.469 74.1773C167.399 77.3314 162.891 78.9084 156.946 78.9084ZM156.946 74.2192C160.407 74.2192 163.128 73.1865 165.11 71.121C167.036 69.1393 167.999 66.4737 167.999 63.1243C167.999 59.7749 167.022 57.0953 165.068 55.0857C163.114 53.0481 160.407 52.0293 156.946 52.0293C153.485 52.0293 150.777 53.0481 148.823 55.0857C146.87 57.0953 145.893 59.7749 145.893 63.1243C145.893 66.4737 146.856 69.1393 148.782 71.121C150.763 73.1865 153.485 74.2192 156.946 74.2192ZM176.467 78.071V48.1775H183.668L201.462 70.6186H201.545V48.1775H207.574V78.071H200.499L182.579 55.63H182.496V78.071H176.467ZM211.161 78.071V48.1775H218.362L236.156 70.6186H236.24V48.1775H242.269V78.071H235.193L217.274 55.63H217.19V78.071H211.161Z" fill="black"/>
<path d="M65.3031 76.3262V46.4326H85.0647C90.7866 46.4326 93.6476 48.9168 93.6476 53.8851C93.6476 55.7552 93.1731 57.2345 92.2241 58.3231C91.6658 58.965 90.7866 59.5651 89.5864 60.1234C93.2149 61.2398 95.0292 63.71 95.0292 67.534C95.0292 69.7111 94.3454 71.5951 92.9777 73.1861C91.1634 75.2795 88.456 76.3262 84.8554 76.3262H65.3031ZM71.5833 51.1218V58.5743H83.3063C86.0137 58.5743 87.3674 57.3043 87.3674 54.7643C87.3674 52.336 85.6508 51.1218 82.2177 51.1218H71.5833ZM71.5833 63.0122V71.637H82.8457C84.5762 71.637 85.8741 71.3858 86.7394 70.8834C87.9117 70.1856 88.4979 68.9714 88.4979 67.2409C88.4979 65.9011 88.0652 64.8684 87.2 64.1427C86.3626 63.3891 85.2182 63.0122 83.7668 63.0122H71.5833Z" fill="black"/>
<path d="M140.719 57.4857H133.936C133.629 55.2528 132.61 53.4943 130.88 52.2104C129.149 50.9264 126.958 50.2845 124.306 50.2845C121.292 50.2845 118.891 51.2474 117.105 53.1733C115.179 55.2388 114.216 58.1556 114.216 61.9237C114.216 65.0498 115.193 67.5898 117.147 69.5436C119.101 71.4974 121.627 72.4743 124.725 72.4743C127.656 72.4743 129.945 71.6091 131.591 69.8785C132.847 68.5667 133.629 66.9059 133.936 64.8963H140.719C139.518 73.0744 133.824 77.1635 123.637 77.1635C118.501 77.1635 114.495 75.5865 111.62 72.4325C108.997 69.5576 107.685 65.8732 107.685 61.3794C107.685 56.8298 108.997 53.1454 111.62 50.3263C114.579 47.1723 118.836 45.5953 124.39 45.5953C129.303 45.5953 133.224 46.7676 136.155 49.1122C138.834 51.2614 140.356 54.0526 140.719 57.4857ZM159.187 77.1635C153.242 77.1635 148.734 75.5865 145.664 72.4325C142.956 69.6413 141.603 65.9569 141.603 61.3794C141.603 56.8019 142.956 53.1175 145.664 50.3263C148.734 47.1723 153.242 45.5953 159.187 45.5953C165.132 45.5953 169.64 47.1723 172.71 50.3263C175.418 53.1175 176.772 56.8019 176.772 61.3794C176.772 65.9569 175.418 69.6413 172.71 72.4325C169.64 75.5865 165.132 77.1635 159.187 77.1635ZM159.187 72.4743C162.648 72.4743 165.37 71.4416 167.351 69.3761C169.277 67.3944 170.24 64.7288 170.24 61.3794C170.24 58.03 169.263 55.3505 167.309 53.3408C165.356 51.3032 162.648 50.2845 159.187 50.2845C155.726 50.2845 153.019 51.3032 151.065 53.3408C149.111 55.3505 148.134 58.03 148.134 61.3794C148.134 64.7288 149.097 67.3944 151.023 69.3761C153.005 71.4416 155.726 72.4743 159.187 72.4743Z" fill="white"/>
<path d="M18.7557 65.5243V46.4326H25.0359V67.2828C25.0359 69.9623 24.352 72.1254 22.9844 73.7722C21.1143 76.0331 18.0858 77.1635 13.8991 77.1635C8.90285 77.1635 5.55343 75.7819 3.85082 73.0186C2.84599 71.4277 2.34358 68.9435 2.34358 65.5662H8.62373C8.62373 67.7433 8.84703 69.2784 9.29362 70.1716C10.0472 71.7068 11.5545 72.4743 13.8153 72.4743C15.9645 72.4743 17.402 71.6928 18.1277 70.1298C18.5464 69.2087 18.7557 67.6735 18.7557 65.5243ZM44.5413 77.1635C38.5961 77.1635 34.0883 75.5865 31.018 72.4325C28.3106 69.6413 26.9569 65.9569 26.9569 61.3794C26.9569 56.8019 28.3106 53.1175 31.018 50.3263C34.0883 47.1723 38.5961 45.5953 44.5413 45.5953C50.4865 45.5953 54.9943 47.1723 58.0646 50.3263C60.772 53.1175 62.1257 56.8019 62.1257 61.3794C62.1257 65.9569 60.772 69.6413 58.0646 72.4325C54.9943 75.5865 50.4865 77.1635 44.5413 77.1635ZM44.5413 72.4743C48.0024 72.4743 50.7238 71.4416 52.7055 69.3761C54.6314 67.3944 55.5944 64.7288 55.5944 61.3794C55.5944 58.03 54.6175 55.3505 52.6636 53.3408C50.7098 51.3032 48.0024 50.2845 44.5413 50.2845C41.0802 50.2845 38.3728 51.3032 36.419 53.3408C34.4651 55.3505 33.4882 58.03 33.4882 61.3794C33.4882 64.7288 34.4512 67.3944 36.3771 69.3761C38.3588 71.4416 41.0802 72.4743 44.5413 72.4743Z" fill="black"/>
<path d="M178.862 75.8904V45.9968H186.063L203.857 68.4379H203.941V45.9968H209.97V75.8904H202.894L184.975 53.4493H184.891V75.8904H178.862ZM213.557 75.8904V45.9968H220.758L238.552 68.4379H238.635V45.9968H244.664V75.8904H237.589L219.669 53.4493H219.586V75.8904H213.557Z" fill="#C03C29"/>
</svg>
