<svg width="313" height="54" viewBox="0 0 313 54" fill="none" xmlns="http://www.w3.org/2000/svg">
<path fill-rule="evenodd" clip-rule="evenodd" d="M313 21.1779H290.038C293.051 9.83989 295.776 0.225098 295.776 0.225098C295.776 0.225098 285.444 11.2753 276.259 21.1779H185.272C184.7 21.1779 184.7 21.4656 185.272 21.4656C185.56 21.4656 274.536 23.0433 274.536 23.0433C267.36 30.6488 263.486 34.9551 263.345 35.099C263.057 35.3867 263.345 35.5306 263.629 35.2429C263.773 35.099 268.943 30.361 276.259 23.0433L287.597 23.1872C286.878 26.488 286.307 29.5011 285.444 33.0897C271.524 40.553 248.85 52.7509 248.85 52.7509C248.562 52.8948 248.706 53.1825 248.994 53.0387C249.138 52.8948 270.233 42.2745 285.012 34.8112C282.575 45.8615 280.997 53.4653 280.997 53.6092C280.853 53.753 281.141 53.8969 281.285 53.6092C281.285 53.4653 283.435 45.8614 286.595 34.0918C299.795 27.3496 313 21.1779 313 21.1779ZM278.124 21.1779C285.012 14.4323 290.754 8.97829 290.754 8.97829C290.754 8.97829 289.75 13.7146 288.029 21.1779H278.124ZM289.464 23.1888L303.24 23.4749C303.24 23.4749 296.352 27.2057 287.023 32.2281C287.885 29.0711 288.601 26.3458 289.464 23.1888Z" fill="white"/>
<path fill-rule="evenodd" clip-rule="evenodd" d="M2.15484 27.9248H6.17173L4.59408 35.3881H8.32489L7.75105 38.2557H0L2.15484 27.9248ZM22.2443 27.781C25.8329 27.781 27.1245 29.9341 26.4068 33.0911C25.6891 36.2481 23.5376 38.4012 19.949 38.4012C16.5042 38.4012 15.2127 36.2481 15.9304 33.0911C16.5059 29.9341 18.8013 27.781 22.2443 27.781ZM20.5228 35.8148C21.2405 35.8148 21.6722 35.3865 22.2443 33.0894C22.676 30.7924 22.3882 30.3607 21.6705 30.3607C21.0966 30.3607 20.5211 30.7924 20.0928 33.0894C19.5173 35.3881 19.949 35.8148 20.5228 35.8148ZM43.341 34.381C42.7671 37.2535 40.3279 38.3996 37.7448 38.3996C34.1562 38.3996 33.0085 36.2464 33.7262 33.0894C34.3 29.7886 36.5954 27.7793 40.0401 27.7793C42.6233 27.7793 44.6325 28.7831 43.9148 31.7979H40.184C40.4718 30.6468 40.0401 30.3607 39.6102 30.3607C38.4608 30.3607 38.1747 31.5118 37.8886 33.0894C37.457 34.6671 37.3148 35.8148 38.3186 35.8148C38.8925 35.8148 39.3241 35.5303 39.6102 34.381H43.341ZM53.5313 27.9248H57.406L56.5444 32.3717L59.5591 27.9248H63.8638L60.133 32.8033L61.9984 38.2557H57.6921L56.2566 33.6649L55.2528 38.2557H51.3781L53.5313 27.9248ZM76.4933 34.381H74.7701L74.0524 38.2557H70.0339L72.187 27.9248H76.2056L75.4879 31.3679H77.2094L77.9288 27.9248H81.9457L79.7925 38.2557H75.7739L76.4933 34.381ZM91.1305 27.9248H98.8816L98.306 30.6502H94.4314L94.1436 31.7995H97.7322L97.1584 34.381H93.5697L93.2837 35.532H97.3022L96.7267 38.2557H88.8351L91.1305 27.9248ZM108.209 27.9248H115.958L115.384 30.6502H111.509L111.222 31.7995H114.81L114.38 34.381H110.648L110.504 35.532H114.524L113.949 38.2557H106.055L108.209 27.9248ZM125.287 27.9248H130.165C134.184 27.9248 135.045 30.2219 134.471 33.235C133.754 36.2481 131.315 38.2574 128.158 38.2574H123.135L125.287 27.9248ZM127.582 35.8148H128.012C128.73 35.8148 129.16 35.6709 129.447 35.2426C129.877 34.811 130.021 34.0916 130.309 33.0894C130.453 32.0823 130.595 31.3679 130.309 30.9363C130.165 30.5046 129.879 30.3607 129.16 30.3607H128.874L127.582 35.8148ZM160.877 30.9363L157.864 38.2557H154.131L154.275 30.9363L152.697 38.2557H149.253L151.406 27.9248H157.002L156.858 34.0932L159.299 27.9248H164.895L162.742 38.2557H159.299L160.877 30.9363ZM176.091 27.9248H181.257L182.405 38.2574H178.242L178.099 36.5358H175.229L174.51 38.2574H170.639L176.091 27.9248ZM178.097 34.0932V30.2219L176.375 34.0932H178.097ZM193.311 27.9248H199.341C201.491 27.9248 202.642 28.6409 202.21 30.5063C201.922 31.7995 201.347 32.6595 199.625 32.9472V33.0911C200.632 33.0911 201.062 33.5227 201.062 34.381C201.203 35.2443 200.775 36.678 200.918 38.2557H197.044C196.9 37.3958 197.044 36.1025 197.188 35.2426C197.188 34.811 196.9 34.5232 196.324 34.5232H195.752L195.033 38.254H191.014L193.311 27.9248ZM196.612 32.2278C197.475 32.2278 198.046 31.9401 198.19 31.224C198.334 30.5046 197.902 30.3607 197.042 30.3607H196.754L196.323 32.2262L196.612 32.2278ZM213.404 30.7941H210.963L211.537 27.9248H220.58L220.004 30.7941H217.563L215.986 38.2557H211.825L213.404 30.7941ZM229.621 27.9248H233.636L231.486 38.2557H227.467L229.621 27.9248ZM243.252 27.9248H248.131L248.994 34.0932L250.428 27.9248H253.585L251.432 38.2557H246.553L245.834 31.9401H245.69L244.4 38.2557H241.099L243.252 27.9248Z" fill="white"/>
</svg>
