<svg width="101" height="101" viewBox="0 0 101 101" fill="none" xmlns="http://www.w3.org/2000/svg">
<circle cx="50.305" cy="50.305" r="47.805" stroke="white" stroke-width="5"/>
<path d="M71.2834 50.305C71.2834 63.9153 68.7038 76.1151 64.642 84.8188C60.4856 93.7255 55.2421 98.11 50.3077 98.11C45.3733 98.11 40.1298 93.7255 35.9734 84.8188C31.9116 76.1151 29.332 63.9153 29.332 50.305C29.332 36.6947 31.9116 24.4949 35.9734 15.7912C40.1298 6.8845 45.3733 2.5 50.3077 2.5C55.2421 2.5 60.4856 6.8845 64.642 15.7912C68.7038 24.4949 71.2834 36.6947 71.2834 50.305Z" stroke="white" stroke-width="5"/>
<path d="M50.3047 0.71875L50.3047 100.371" stroke="white" stroke-width="5"/>
<path d="M0.59375 50.3047H100.246" stroke="white" stroke-width="5"/>
</svg>
